<svg width="76" height="76" viewBox="0 0 76 76" fill="none" xmlns="http://www.w3.org/2000/svg">
<path d="M36.3979 39.6191H8.3125V67.7113H36.3979V39.6191Z" fill="#A6A8AB"/>
<path d="M67.687 39.6191H39.6016V67.7113H67.687V39.6191Z" fill="#A6A8AB"/>
<path d="M36.3979 8.29688H8.3125V36.3961H36.3979V8.29688Z" fill="#A50F2D"/>
<path d="M67.687 8.29688H39.6016V36.3961H67.687V8.29688Z" fill="#A6A8AB"/>
<path d="M18.8578 47.4758V53.2218H27.1174V55.2469H18.8578V61.9108H16.5039V45.4297H28.1262V47.4758H18.8578Z" fill="white"/>
<path d="M47.9766 45.4209H50.3305V59.8489H59.2486V61.895H47.9766V45.4209Z" fill="white"/>
<path d="M15.9805 28.6994L16.8492 26.8635C18.0751 27.9707 20.1698 28.7695 22.2855 28.7695C25.1298 28.7695 26.3557 27.6624 26.3557 26.2259C26.3557 22.2037 16.3798 24.7403 16.3798 18.623C16.3798 16.0793 18.3554 13.9141 22.6848 13.9141C24.6114 13.9141 26.615 14.4326 27.981 15.3716L27.2034 17.2565C25.7673 16.3386 24.142 15.9181 22.6848 15.9181C19.8826 15.9181 18.6846 17.0954 18.6846 18.5319C18.6846 22.554 28.6606 20.0384 28.6606 26.0857C28.6606 28.6013 26.636 30.7736 22.2855 30.7736C19.7635 30.7736 17.2975 29.9257 15.9805 28.6994Z" fill="white"/>
<path d="M45.2578 22.3507C45.2578 17.5226 48.8237 13.9209 53.6715 13.9209C58.4774 13.9209 62.0432 17.5016 62.0432 22.3507C62.0432 27.1997 58.4774 30.7804 53.6715 30.7804C48.8237 30.7804 45.2578 27.1787 45.2578 22.3507ZM59.7874 22.3507C59.7874 18.6999 57.1673 16.0161 53.6715 16.0161C50.1267 16.0161 47.5136 18.6999 47.5136 22.3507C47.5136 26.0015 50.1337 28.6852 53.6715 28.6852C57.1673 28.6852 59.7874 26.0015 59.7874 22.3507Z" fill="white"/>
</svg>
